<?xml version="1.0" encoding="iso-8859-1"?>
<!-- Generator: Adobe Illustrator 19.0.0, SVG Export Plug-In . SVG Version: 6.00 Build 0)  -->
<svg version="1.1" id="Capa_1" xmlns="http://www.w3.org/2000/svg" xmlns:xlink="http://www.w3.org/1999/xlink" x="0px" y="0px"
	 viewBox="0 0 512.003 512.003" style="enable-background:new 0 0 512.003 512.003;" xml:space="preserve">
<path style="fill:#FF8546;" d="M105.971,497.001L84.45,483.238c-1.31-0.839-1.901-2.429-1.479-3.926
	c0.014-0.049,0.028-0.098,0.04-0.148c1.604-5.889,2.75-21.738-18.986-45.858c-22.657-25.142-29.547-48.745-31.337-64.118
	c-2.003-17.203,1.58-28.581,2.318-30.688l32.742,11.481c0,0,0.04-0.103,0.103-0.308c-0.338,1.098-7.913,27.268,21.949,60.405
	c18.602,20.643,28.242,41.365,28.649,61.588c0.202,10.04-2,17.751-4.051,22.696C113.025,497.676,108.993,498.934,105.971,497.001z"
	/>
<path style="fill:#707070;" d="M358.509,56.922H200.975c-21.288-26.985-53.665-42.833-88.382-42.833
	C50.509,14.089,0,64.597,0,126.681c0,28.84,11.045,56.398,30.63,77.194L6.495,287.474c-0.105,0.363-0.198,0.727-0.279,1.096
	c-7.101,32.387,13.468,64.513,45.853,71.615c4.25,0.932,8.597,1.404,12.919,1.404c27.799,0,52.327-19.585,58.558-46.657
	l23.383-80.996c21.386-6.807,40.101-19.786,54.049-37.496h157.528c19.769,0,35.851-16.082,35.851-35.85V92.773
	C394.36,73.004,378.276,56.922,358.509,56.922z"/>
<path style="fill:#CCF7F5;" d="M115.367,184.118c-31.67,0-57.437-25.766-57.437-57.437s25.767-57.437,57.437-57.437
	s57.437,25.766,57.437,57.437S147.037,184.118,115.367,184.118z"/>
<g>
	<path style="fill:#E03905;" d="M483.004,121.334c-8.39,0.001-16.52-2.104-23.685-3.957c-11.116-2.875-18.193-4.416-22.768-1.588
		c-8.148,5.038-18.84,2.518-23.878-5.632c-5.039-8.149-2.518-18.84,5.631-23.879c17.503-10.823,36.117-6.008,49.708-2.491
		c6.732,1.742,15.115,3.91,17.795,2.322c8.244-4.884,18.885-2.163,23.77,6.08c4.885,8.243,2.163,18.884-6.08,23.77
		C496.746,119.958,489.789,121.334,483.004,121.334z"/>
	<path style="fill:#E03905;" d="M483.004,173.186c-8.39,0.001-16.52-2.104-23.685-3.957c-11.116-2.875-18.193-4.416-22.768-1.588
		c-8.148,5.039-18.84,2.517-23.878-5.632c-5.039-8.149-2.518-18.84,5.631-23.879c17.503-10.823,36.117-6.008,49.708-2.491
		c6.732,1.742,15.115,3.911,17.795,2.322c8.244-4.884,18.885-2.163,23.77,6.08c4.885,8.243,2.163,18.884-6.08,23.77
		C496.746,171.81,489.789,173.186,483.004,173.186z"/>
</g>
<path style="fill:#575757;" d="M358.509,56.922H255.588v139.519h102.921c19.769,0,35.851-16.082,35.851-35.85V92.773
	C394.36,73.004,378.276,56.922,358.509,56.922z"/>
<rect x="306.152" y="56.927" style="fill:#74D6D0;" width="34.697" height="139.516"/>
<g>
</g>
<g>
</g>
<g>
</g>
<g>
</g>
<g>
</g>
<g>
</g>
<g>
</g>
<g>
</g>
<g>
</g>
<g>
</g>
<g>
</g>
<g>
</g>
<g>
</g>
<g>
</g>
<g>
</g>
</svg>
