<?xml version="1.0" encoding="iso-8859-1"?>
<!-- Generator: Adobe Illustrator 19.0.0, SVG Export Plug-In . SVG Version: 6.00 Build 0)  -->
<svg version="1.1" id="Layer_1" xmlns="http://www.w3.org/2000/svg" xmlns:xlink="http://www.w3.org/1999/xlink" x="0px" y="0px"
	 viewBox="0 0 511.992 511.992" style="enable-background:new 0 0 511.992 511.992;" xml:space="preserve">
<path style="fill:#656D78;" d="M293.434,0c-5.891,0-10.672,4.781-10.672,10.672v10.656h-21.328V10.672
	C261.434,4.781,256.66,0,250.769,0c-5.89,0-10.664,4.781-10.664,10.672v10.656H218.77V10.672C218.77,4.781,213.997,0,208.106,0
	s-10.672,4.781-10.672,10.672v10.656h-21.328V10.672C176.106,4.781,171.325,0,165.434,0c-5.89,0-10.664,4.781-10.664,10.672v10.656
	h-21.334V10.672C133.436,4.781,128.663,0,122.772,0c-5.891,0-10.664,4.781-10.664,10.672v10.656H90.773V10.672
	C90.773,4.781,86,0,80.109,0S69.437,4.781,69.437,10.672v19.265c-0.133,0.656-0.203,1.359-0.203,2.062v106.67
	c0,5.89,4.773,10.656,10.664,10.656h213.537c5.891,0,10.672-4.766,10.672-10.656V32.171v-0.172V10.672
	C304.106,4.781,299.325,0,293.434,0z"/>
<path style="fill:#434A54;" d="M442.76,458.851c0-5.891-4.766-10.672-10.656-10.672c-1.641,0-3.188,0.391-4.578,1.047l-0.016-0.016
	c-58.687,27.938-139.935,56.281-193.685,32.641c-29.476-12.969-36.765-35.75-37.062-36.719l0.023,0.094l-20.492,5.922
	c0.383,1.328,9.828,32.656,48.14,49.875c16.234,7.297,35.211,10.969,56.641,10.969c7.484,0,15.281-0.453,23.359-1.344
	c37.811-4.219,82.311-18.391,132.247-42.172l0,0C440.275,466.758,442.76,463.101,442.76,458.851z"/>
<path id="SVGCleanerId_0" style="fill:#656D78;" d="M208.107,362.853h-42.671c-5.89,0-10.664,4.781-10.664,10.656v74.67
	c0,5.891,4.773,10.672,10.664,10.672h42.671c5.891,0,10.664-4.781,10.664-10.672v-74.67
	C218.771,367.635,213.997,362.853,208.107,362.853z"/>
<g>
	<path id="SVGCleanerId_0_1_" style="fill:#656D78;" d="M208.107,362.853h-42.671c-5.89,0-10.664,4.781-10.664,10.656v74.67
		c0,5.891,4.773,10.672,10.664,10.672h42.671c5.891,0,10.664-4.781,10.664-10.672v-74.67
		C218.771,367.635,213.997,362.853,208.107,362.853z"/>
</g>
<g>
	<path style="fill:#434A54;" d="M165.435,426.851c0-5.89-4.773-10.671-10.664-10.671v21.343
		C160.663,437.523,165.435,432.742,165.435,426.851z"/>
	<path style="fill:#434A54;" d="M208.107,426.851c0,5.891,4.773,10.672,10.664,10.672V416.18
		C212.88,416.181,208.107,420.962,208.107,426.851z"/>
</g>
<path style="fill:#48CFAD;" d="M186.771,405.321c-119.357,0-117.537-266.651-117.537-266.651s29.343-53.343,117.537-53.343
	s117.335,53.343,117.335,53.343S306.122,405.321,186.771,405.321z"/>
<path style="fill:#434A54;" d="M304.106,53.327V32.171v-0.172V10.672C304.106,4.781,299.325,0,293.434,0
	s-10.672,4.781-10.672,10.672v10.656h-21.328V10.672C261.434,4.781,256.66,0,250.769,0c-5.89,0-10.664,4.781-10.664,10.672v10.656
	H218.77V10.672C218.77,4.781,213.997,0,208.106,0s-10.672,4.781-10.672,10.672v10.656h-21.328V10.672
	C176.106,4.781,171.325,0,165.434,0c-5.89,0-10.664,4.781-10.664,10.672v10.656h-21.334V10.672C133.436,4.781,128.663,0,122.772,0
	c-5.891,0-10.664,4.781-10.664,10.672v10.656H90.773V10.672C90.773,4.781,86,0,80.109,0S69.437,4.781,69.437,10.672v19.265
	c-0.133,0.656-0.203,1.359-0.203,2.062v21.328C69.234,53.327,304.106,53.327,304.106,53.327z"/>
<path style="fill:#F5F7FA;" d="M218.787,191.997c0,17.671-14.32,31.999-32,31.999c-17.672,0-32-14.328-32-31.999
	c0-17.672,14.328-32,32-32C204.466,159.997,218.787,174.325,218.787,191.997z"/>
<g>
</g>
<g>
</g>
<g>
</g>
<g>
</g>
<g>
</g>
<g>
</g>
<g>
</g>
<g>
</g>
<g>
</g>
<g>
</g>
<g>
</g>
<g>
</g>
<g>
</g>
<g>
</g>
<g>
</g>
</svg>
